<?xml version="1.0" encoding="UTF-8"?><svg id="a" xmlns="http://www.w3.org/2000/svg" viewBox="0 0 1251.04 311.4"><path d="M392.37,224c-6.19,6.18-13,11.59-20.45,16.23s-15.53,8.22-24.24,10.75c-8.71,2.53-17.7,3.79-26.98,3.79-14.33,0-27.47-2.31-39.42-6.95-11.95-4.64-22.2-11.31-30.77-20.03-.61-.62-1.21-1.25-1.81-1.89-1.54,17.9-6.85,33.85-15.85,47.56-1.85,2.83-3.84,5.54-5.95,8.14,8.45,6.11,17.65,11.22,27.61,15.33,17.71,7.31,37.24,10.96,58.6,10.96,13.77,0,27.62-1.76,41.53-5.27,13.91-3.51,26.48-8.36,37.73-14.54,11.24-6.18,20.23-13.07,26.98-20.66l-26.98-43.42Z" fill="#231f20"/><path d="M129.81,51.66h-1.3v-.05c.44.01.87.03,1.3.05Z" fill="#231f20"/><path d="M231.44,198.5c1.16,5.14,1.73,10.55,1.73,16.22,0,19.4-4.57,36.05-13.7,49.96-1.54,2.34-3.18,4.59-4.93,6.75-8.64,10.67-19.85,19.1-33.64,25.29-16.59,7.44-35.98,11.17-58.18,11.17-17.15,0-32.88-2.18-47.22-6.53-14.33-4.36-27.26-10.89-38.78-19.6-11.53-8.71-21.78-19.25-30.78-31.62l35.84-40.47c13.77,19.11,27.26,32.32,40.47,39.62,13.21,7.32,28.1,10.96,44.69,10.96,9.55,0,18.26-1.47,26.13-4.42,7.87-2.95,14.05-7.02,18.55-12.23,4.5-5.19,6.75-11.17,6.75-17.91,0-4.78-.92-9.21-2.74-13.28-1.83-4.08-4.57-7.73-8.22-10.97-3.66-3.22-8.16-6.25-13.49-9.06-5.34-2.81-11.39-5.2-18.13-7.17-6.75-1.96-14.2-3.79-22.34-5.48-4.81-.96-9.44-2.02-13.87-3.19-9.8-2.58-18.67-5.66-26.61-9.24-11.52-5.2-21.22-11.66-29.08-19.4-7.88-7.72-13.64-16.44-17.29-26.13-.23-.6-.45-1.2-.65-1.81-.15-.43-.3-.85-.44-1.28-.1-.31-.2-.62-.3-.93-.16-.52-.32-1.05-.47-1.58-.14-.45-.26-.9-.38-1.36-.04-.11-.07-.21-.09-.32-.11-.4-.22-.8-.31-1.21-.05-.16-.09-.31-.12-.47-.11-.45-.22-.9-.32-1.35t0-.02c-.12-.51-.23-1.02-.34-1.54-1.38-6.58-2.06-13.65-2.06-21.23,0-12.36,2.74-23.74,8.22-34.15,5.48-10.39,13-19.39,22.56-26.98,9.55-7.58,20.65-13.49,33.3-17.7,12.65-4.22,26.28-6.33,40.89-6.33,2.33,0,4.63.04,6.89.12h113.68c-17.83,8.23-33.77,19.43-47.42,33.37-4.55,4.63-8.8,9.53-12.74,14.66h-56.69c-.43-.02-.86-.04-1.3-.05-.8-.03-1.61-.04-2.42-.04-10.11,0-18.9,1.41-26.35,4.22-7.45,2.81-13.27,6.82-17.49,12.01-4.22,5.21-6.32,11.46-6.32,18.76,0,5.63,1.26,10.62,3.79,14.97,1.76,3.03,4.02,5.82,6.8,8.37,1.22,1.12,2.53,2.19,3.95,3.22,2.61,1.9,5.65,3.67,9.11,5.31,2.68,1.26,5.62,2.44,8.81,3.55,7.3,2.53,15.6,4.78,24.87,6.74,12.81,2.57,24.57,5.86,35.26,9.87,2.2.82,4.36,1.68,6.48,2.57,12.36,5.2,22.9,11.38,31.61,18.55,8.71,7.17,15.32,15.32,19.82,24.45.33.67.64,1.33.94,2.01h0c1.76,3.93,3.12,8.02,4.07,12.32h0Z"/><path d="M352.87,9.55c-2.68-.72-5.38-1.36-8.09-1.92,2.71.55,5.41,1.19,8.09,1.92Z" fill="#fff"/><path d="M344.78,7.63c2.71.56,5.41,1.2,8.09,1.92-2.68-.73-5.38-1.37-8.09-1.92Z" fill="#231f20"/><path d="M423.56,54.52l-34.99,38.37c-59.95-68.11-163.91-30.01-164.8,60.79-14.11-13.96-32.76-24.09-52.78-31.22C193.77,5.81,346.56-37.85,423.56,54.52Z"/><path d="M511.75,151.38c-4.84,0-9.28-.62-13.33-1.85-4.05-1.23-7.7-3.07-10.95-5.54-3.25-2.46-6.15-5.43-8.69-8.93l10.12-11.43c3.89,5.4,7.7,9.13,11.43,11.19,3.73,2.06,7.93,3.1,12.62,3.1,2.7,0,5.16-.42,7.38-1.25,2.22-.83,3.97-1.98,5.24-3.45,1.27-1.47,1.91-3.15,1.91-5.06,0-1.35-.26-2.6-.77-3.75-.52-1.15-1.29-2.18-2.32-3.09-1.03-.91-2.3-1.77-3.81-2.56-1.51-.79-3.21-1.47-5.12-2.02-1.91-.55-4.01-1.07-6.31-1.55-4.37-.87-8.17-2.04-11.43-3.51-3.25-1.47-5.99-3.29-8.21-5.48-2.22-2.18-3.85-4.64-4.88-7.38-1.03-2.74-1.55-5.85-1.55-9.34s.77-6.71,2.32-9.64c1.55-2.94,3.67-5.48,6.37-7.62,2.7-2.14,5.83-3.81,9.4-5s7.42-1.79,11.55-1.79c4.68,0,8.87.56,12.56,1.67,3.69,1.11,6.94,2.76,9.76,4.94,2.82,2.18,5.14,4.82,6.96,7.92l-10.24,10.12c-1.59-2.46-3.37-4.5-5.36-6.13-1.99-1.63-4.13-2.86-6.43-3.69-2.3-.83-4.72-1.25-7.26-1.25-2.86,0-5.34.4-7.44,1.19-2.1.79-3.75,1.92-4.94,3.39-1.19,1.47-1.79,3.23-1.79,5.3,0,1.59.36,3,1.07,4.23.71,1.23,1.73,2.32,3.04,3.27,1.31.95,2.99,1.79,5.06,2.5,2.06.71,4.4,1.35,7.02,1.9,4.36.87,8.29,2.04,11.78,3.51,3.49,1.47,6.47,3.21,8.93,5.24,2.46,2.02,4.32,4.33,5.59,6.9,1.27,2.58,1.9,5.46,1.9,8.63,0,5.48-1.29,10.18-3.87,14.1-2.58,3.93-6.21,6.94-10.89,9.05-4.68,2.1-10.16,3.15-16.43,3.15Z" fill="#231f20"/><polygon points="626.85 136.14 626.85 150.19 571.86 150.19 571.86 66.87 626.37 66.87 626.37 80.91 587.09 80.91 587.09 100.67 620.3 100.67 620.3 114.48 587.09 114.48 587.09 136.14 626.85 136.14" fill="#231f20"/><path d="M695.89,66.87h-14.52l-32.5,83.32h15.48l7.23-19.05h33.32l7.18,19.05h16.07l-32.26-83.32ZM676.69,117.69l5.51-14.52c.55-1.59,1.17-3.37,1.85-5.36.67-1.98,1.36-4.04,2.08-6.19.71-2.14,1.39-4.2,2.02-6.19.06-.17.11-.34.16-.51.62,2.06,1.33,4.28,2.1,6.65.8,2.42,1.53,4.66,2.21,6.72.67,2.06,1.2,3.57,1.6,4.52l5.61,14.88h-23.14Z" fill="#231f20"/><path d="M825.75,66.87v83.32h-14.16l-44.97-59.41c.18,2.13.36,4.05.51,5.78.28,3.14.49,5.84.65,8.1.16,2.26.3,4.15.42,5.65.12,1.51.2,2.88.24,4.11s.06,2.4.06,3.51v32.26h-15.36v-83.32h13.93l45.09,60.75c-.07-.66-.14-1.33-.21-2.01-.24-2.34-.46-4.78-.66-7.32-.2-2.54-.36-5.2-.47-7.98-.12-2.77-.22-5.69-.3-8.75-.08-3.05-.12-6.28-.12-9.7v-24.99h15.35Z" fill="#231f20"/><path d="M942.29,151.38c-6.03,0-11.55-1.03-16.55-3.09-5-2.06-9.33-5.02-12.97-8.87-3.65-3.85-6.49-8.41-8.51-13.69-2.02-5.28-3.04-11.05-3.04-17.32s1.07-11.62,3.21-16.78c2.14-5.16,5.12-9.68,8.93-13.57,3.81-3.89,8.25-6.9,13.33-9.05,5.08-2.14,10.59-3.21,16.55-3.21,4.05,0,7.98.59,11.78,1.79s7.3,2.84,10.47,4.94c3.17,2.1,5.83,4.54,7.98,7.32l-9.88,10.83c-2.06-2.14-4.19-3.95-6.37-5.42-2.18-1.47-4.45-2.58-6.79-3.33-2.34-.75-4.74-1.13-7.2-1.13-3.65,0-7.08.67-10.3,2.02-3.21,1.35-5.99,3.25-8.33,5.71-2.34,2.46-4.19,5.38-5.54,8.75-1.35,3.37-2.02,7.12-2.02,11.25s.66,8.02,1.96,11.43c1.31,3.41,3.17,6.35,5.59,8.81,2.42,2.46,5.32,4.34,8.69,5.65,3.37,1.31,7.08,1.96,11.13,1.96,2.62,0,5.16-.36,7.62-1.07,2.46-.71,4.74-1.73,6.84-3.04,2.1-1.31,4.03-2.84,5.77-4.58l7.62,12.26c-1.9,2.14-4.45,4.09-7.62,5.83-3.17,1.75-6.73,3.12-10.65,4.11-3.93.99-7.84,1.49-11.72,1.49Z" fill="#231f20"/><path d="M1036.2,151.38c-5.95,0-11.47-1.07-16.54-3.21-5.08-2.14-9.5-5.14-13.27-8.99-3.77-3.85-6.69-8.39-8.75-13.63-2.06-5.24-3.09-10.95-3.09-17.14s1.03-11.9,3.09-17.14c2.06-5.24,4.98-9.78,8.75-13.63,3.77-3.85,8.19-6.84,13.27-8.99,5.08-2.14,10.59-3.21,16.54-3.21s11.59,1.07,16.67,3.21c5.08,2.14,9.48,5.16,13.21,9.05,3.73,3.89,6.62,8.43,8.69,13.63,2.06,5.2,3.1,10.89,3.1,17.08s-1.03,11.78-3.1,17.02c-2.06,5.24-4.96,9.8-8.69,13.69-3.73,3.89-8.14,6.9-13.21,9.05-5.08,2.14-10.63,3.21-16.67,3.21ZM1036.2,136.62c3.81,0,7.28-.69,10.42-2.08,3.13-1.39,5.85-3.37,8.15-5.95,2.3-2.58,4.11-5.57,5.42-8.99,1.31-3.41,1.96-7.14,1.96-11.19s-.65-7.78-1.96-11.19c-1.31-3.41-3.12-6.41-5.42-8.99-2.3-2.58-5.02-4.56-8.15-5.95-3.14-1.39-6.61-2.08-10.42-2.08s-7.18.7-10.36,2.08c-3.17,1.39-5.91,3.35-8.21,5.89-2.3,2.54-4.09,5.52-5.36,8.93-1.27,3.41-1.9,7.18-1.9,11.31s.63,7.8,1.9,11.25c1.27,3.45,3.05,6.45,5.36,8.99,2.3,2.54,5.04,4.5,8.21,5.89,3.17,1.39,6.62,2.08,10.36,2.08Z" fill="#231f20"/><path d="M1106.55,150.19v-83.32h15.47v69.04h38.45v14.28h-53.92Z" fill="#231f20"/><polygon points="1245.1 136.14 1245.1 150.19 1190.11 150.19 1190.11 66.87 1244.62 66.87 1244.62 80.91 1205.34 80.91 1205.34 100.67 1238.55 100.67 1238.55 114.48 1205.34 114.48 1205.34 136.14 1245.1 136.14" fill="#231f20"/><path d="M748.71,214.38c-1.35-3.38-3.2-6.31-5.56-8.76-2.35-2.46-5.09-4.38-8.21-5.76-3.12-1.37-6.48-2.06-10.08-2.06h-20.23v55.55h20.23c3.6,0,6.96-.69,10.08-2.07,3.12-1.37,5.86-3.29,8.21-5.75,2.36-2.46,4.21-5.4,5.56-8.81,1.35-3.41,2.02-7.13,2.02-11.15s-.67-7.8-2.02-11.19ZM744.78,235.14c-1.16,2.88-2.75,5.39-4.76,7.53-2.01,2.15-4.35,3.8-7.02,4.96-2.68,1.17-5.52,1.75-8.53,1.75h-15.87v-47.61h15.87c3.01,0,5.85.58,8.53,1.74,2.67,1.17,5.01,2.82,7.02,4.96s3.6,4.66,4.76,7.54c1.16,2.89,1.75,6.07,1.75,9.56s-.59,6.68-1.75,9.57Z" fill="#231f20"/><polygon points="775.17 201.77 775.17 222.72 798.98 222.72 798.98 226.68 775.17 226.68 775.17 249.38 803.19 249.38 803.19 253.35 771.21 253.35 771.21 197.8 803.5 197.8 803.5 201.77 775.17 201.77" fill="#231f20"/><path d="M840.88,254.14c-2.65,0-5.17-.4-7.58-1.19-2.41-.79-4.63-1.97-6.67-3.53-2.04-1.56-3.82-3.48-5.36-5.75l2.86-2.94c2.33,3.39,4.92,5.81,7.78,7.26,2.86,1.46,5.9,2.18,9.13,2.18,2.8,0,5.32-.49,7.54-1.47,2.22-.98,3.98-2.33,5.28-4.05,1.3-1.72,1.94-3.66,1.94-5.83,0-1.48-.25-2.75-.75-3.81-.5-1.06-1.22-1.98-2.14-2.78-.93-.79-2.04-1.49-3.33-2.1-1.3-.61-2.75-1.16-4.36-1.67-1.61-.5-3.35-1.02-5.2-1.55-2.54-.74-4.8-1.51-6.78-2.3-1.98-.79-3.68-1.75-5.08-2.86-1.4-1.11-2.46-2.43-3.17-3.97-.71-1.53-1.07-3.41-1.07-5.63s.44-4.15,1.31-5.95c.87-1.8,2.1-3.36,3.69-4.68,1.59-1.32,3.42-2.34,5.52-3.05,2.09-.71,4.35-1.07,6.78-1.07,2.86,0,5.36.41,7.5,1.23,2.14.82,4.03,1.97,5.67,3.45,1.64,1.48,3.12,3.23,4.44,5.24l-2.94,2.86c-1.16-1.8-2.46-3.36-3.89-4.68-1.43-1.32-3.03-2.34-4.8-3.05-1.77-.71-3.77-1.07-5.99-1.07-2.54,0-4.8.46-6.78,1.39-1.98.93-3.56,2.21-4.72,3.85-1.17,1.64-1.75,3.52-1.75,5.63,0,1.48.28,2.78.83,3.89s1.43,2.08,2.62,2.9c1.19.82,2.7,1.56,4.52,2.22,1.83.66,4.01,1.31,6.55,1.94,2.59.63,4.95,1.38,7.06,2.22,2.12.85,3.96,1.85,5.52,3.01,1.56,1.17,2.75,2.57,3.57,4.21.82,1.64,1.23,3.62,1.23,5.95,0,2.96-.82,5.62-2.46,7.97-1.64,2.35-3.89,4.21-6.75,5.55-2.86,1.35-6.11,2.02-9.76,2.02Z" fill="#231f20"/><path d="M877.38,253.35v-3.97h8.97v-47.61h-8.97v-3.97h21.9v3.97h-8.97v47.61h8.97v3.97h-21.9Z" fill="#231f20"/><path d="M968.88,231.68c0,3.23-.62,6.22-1.87,8.97-1.24,2.75-2.99,5.13-5.24,7.14-2.24,2.01-4.85,3.57-7.81,4.68-2.96,1.12-6.16,1.67-9.6,1.67-4.13,0-7.95-.7-11.47-2.1s-6.59-3.36-9.2-5.87c-2.62-2.52-4.66-5.51-6.12-8.97-1.45-3.47-2.18-7.26-2.18-11.39s.72-7.92,2.14-11.39c1.43-3.46,3.42-6.46,5.96-9s5.52-4.51,8.96-5.92c3.44-1.4,7.15-2.1,11.11-2.1,2.81,0,5.58.41,8.34,1.23,2.75.82,5.26,1.93,7.53,3.33,2.28,1.41,4.08,3.01,5.4,4.81l-2.7,2.77c-1.37-1.58-3.08-2.99-5.12-4.2-2.03-1.22-4.22-2.18-6.54-2.9-2.33-.71-4.58-1.07-6.75-1.07-3.38,0-6.54.61-9.48,1.83-2.94,1.21-5.5,2.91-7.7,5.07-2.19,2.17-3.9,4.75-5.12,7.74-1.21,2.99-1.82,6.26-1.82,9.8s.62,6.8,1.86,9.76c1.25,2.96,3,5.54,5.28,7.74,2.27,2.19,4.92,3.89,7.94,5.08,3.01,1.19,6.29,1.78,9.84,1.78,2.96,0,5.68-.43,8.17-1.31,2.49-.87,4.64-2.1,6.47-3.69,1.82-1.58,3.24-3.43,4.24-5.55,1.01-2.12,1.51-4.42,1.51-6.91v-1.74h-20.47v-3.97h24.2c.05.27.09.68.12,1.23.02.56.05,1.15.08,1.79.02.63.04,1.19.04,1.66Z" fill="#231f20"/><path d="M1033.23,197.8v55.55h-3.81l-37.55-49.23c.01.19.01.38.02.58.05,1.91.1,3.98.16,6.23.05,2.25.1,4.45.16,6.59.05,2.14.09,3.99.12,5.55.02,1.56.04,2.56.04,2.98v27.3h-3.97v-55.55h3.65l37.49,49.14c-.02-1.77-.05-3.88-.08-6.33-.02-2.51-.05-5.09-.07-7.74-.03-2.64-.06-5.1-.08-7.38-.03-2.27-.04-4.02-.04-5.23v-22.46h3.96Z" fill="#231f20"/><rect x="595.59" y="224.23" width="72.71" height="3.31" fill="#231f20"/><rect x="1069.56" y="224.23" width="72.71" height="3.31" fill="#231f20"/></svg>