<?xml version="1.0" encoding="UTF-8"?><svg id="a" xmlns="http://www.w3.org/2000/svg" viewBox="0 0 1753.41 311.4"><path d="M392.37,224c-6.19,6.18-13,11.59-20.45,16.23s-15.53,8.22-24.24,10.75c-8.71,2.53-17.7,3.79-26.98,3.79-14.33,0-27.47-2.31-39.42-6.95-11.95-4.64-22.2-11.31-30.77-20.03-.61-.62-1.21-1.25-1.81-1.89-1.54,17.9-6.85,33.85-15.85,47.56-1.85,2.83-3.84,5.54-5.95,8.14,8.45,6.11,17.65,11.22,27.61,15.33,17.71,7.31,37.24,10.96,58.6,10.96,13.77,0,27.62-1.76,41.53-5.27,13.91-3.51,26.48-8.36,37.73-14.54,11.24-6.18,20.23-13.07,26.98-20.66l-26.98-43.42Z" fill="#fff"/><path d="M129.81,51.66h-1.3v-.05c.44.01.87.03,1.3.05Z" fill="#fff"/><path d="M231.44,198.5c1.16,5.14,1.73,10.55,1.73,16.22,0,19.4-4.57,36.05-13.7,49.96-1.54,2.34-3.18,4.59-4.93,6.75-8.64,10.67-19.85,19.1-33.64,25.29-16.59,7.44-35.98,11.17-58.18,11.17-17.15,0-32.88-2.18-47.22-6.53-14.33-4.36-27.26-10.89-38.78-19.6-11.53-8.71-21.78-19.25-30.78-31.62l35.84-40.47c13.77,19.11,27.26,32.32,40.47,39.62,13.21,7.32,28.1,10.96,44.69,10.96,9.55,0,18.26-1.47,26.13-4.42,7.87-2.95,14.05-7.02,18.55-12.23,4.5-5.19,6.75-11.17,6.75-17.91,0-4.78-.92-9.21-2.74-13.28-1.83-4.08-4.57-7.73-8.22-10.97-3.66-3.22-8.16-6.25-13.49-9.06-5.34-2.81-11.39-5.2-18.13-7.17-6.75-1.96-14.2-3.79-22.34-5.48-4.81-.96-9.44-2.02-13.87-3.19-9.8-2.58-18.67-5.66-26.61-9.24-11.52-5.2-21.22-11.66-29.08-19.4-7.88-7.72-13.64-16.44-17.29-26.13-.23-.6-.45-1.2-.65-1.81-.15-.43-.3-.85-.44-1.28-.1-.31-.2-.62-.3-.93-.16-.52-.32-1.05-.47-1.58-.14-.45-.26-.9-.38-1.36-.04-.11-.07-.21-.09-.32-.11-.4-.22-.8-.31-1.21-.05-.16-.09-.31-.12-.47-.11-.45-.22-.9-.32-1.35t0-.02c-.12-.51-.23-1.02-.34-1.54-1.38-6.58-2.06-13.65-2.06-21.23,0-12.36,2.74-23.74,8.22-34.15,5.48-10.39,13-19.39,22.56-26.98,9.55-7.58,20.65-13.49,33.3-17.7,12.65-4.22,26.28-6.33,40.89-6.33,2.33,0,4.63.04,6.89.12h113.68c-17.83,8.23-33.77,19.43-47.42,33.37-4.55,4.63-8.8,9.53-12.74,14.66h-56.69c-.43-.02-.86-.04-1.3-.05-.8-.03-1.61-.04-2.42-.04-10.11,0-18.9,1.41-26.35,4.22-7.45,2.81-13.27,6.82-17.49,12.01-4.22,5.21-6.32,11.46-6.32,18.76,0,5.63,1.26,10.62,3.79,14.97,1.76,3.03,4.02,5.82,6.8,8.37,1.22,1.12,2.53,2.19,3.95,3.22,2.61,1.9,5.65,3.67,9.11,5.31,2.68,1.26,5.62,2.44,8.81,3.55,7.3,2.53,15.6,4.78,24.87,6.74,12.81,2.57,24.57,5.86,35.26,9.87,2.2.82,4.36,1.68,6.48,2.57,12.36,5.2,22.9,11.38,31.61,18.55,8.71,7.17,15.32,15.32,19.82,24.45.33.67.64,1.33.94,2.01h0c1.76,3.93,3.12,8.02,4.07,12.32h0Z" fill="#fff"/><path d="M352.87,9.55c-2.68-.72-5.38-1.36-8.09-1.92,2.71.55,5.41,1.19,8.09,1.92Z" fill="#fff"/><path d="M344.78,7.63c2.71.56,5.41,1.2,8.09,1.92-2.68-.73-5.38-1.37-8.09-1.92Z" fill="#fff"/><path d="M423.56,54.52l-34.99,38.37c-59.95-68.11-163.91-30.01-164.8,60.79-14.11-13.96-32.76-24.09-52.78-31.22C193.77,5.81,346.56-37.85,423.56,54.52Z" fill="#fff"/><path d="M583.48,144.31c-7.68,0-14.73-.98-21.15-2.93-6.42-1.95-12.21-4.88-17.37-8.78-5.16-3.9-9.76-8.62-13.79-14.16l16.05-18.13c6.17,8.56,12.21,14.48,18.13,17.75,5.92,3.28,12.59,4.91,20.02,4.91,4.28,0,8.18-.66,11.71-1.98,3.52-1.32,6.3-3.15,8.31-5.48,2.01-2.33,3.02-5,3.02-8.03,0-2.14-.41-4.12-1.23-5.95-.82-1.82-2.05-3.46-3.68-4.91-1.64-1.45-3.65-2.8-6.04-4.06-2.39-1.26-5.1-2.33-8.12-3.21-3.02-.88-6.36-1.7-10.01-2.46-6.93-1.38-12.97-3.24-18.13-5.57-5.16-2.33-9.51-5.22-13.03-8.69-3.53-3.46-6.11-7.37-7.74-11.71-1.64-4.34-2.45-9.28-2.45-14.82s1.23-10.64,3.68-15.3c2.45-4.66,5.82-8.69,10.1-12.09,4.28-3.4,9.25-6.04,14.92-7.93s11.77-2.83,18.32-2.83c7.43,0,14.07.88,19.93,2.64,5.85,1.76,11.01,4.38,15.49,7.84,4.47,3.46,8.15,7.65,11.05,12.56l-16.24,16.05c-2.52-3.9-5.35-7.14-8.5-9.73-3.15-2.58-6.55-4.53-10.2-5.85-3.65-1.32-7.49-1.98-11.52-1.98-4.53,0-8.47.63-11.8,1.89-3.34,1.26-5.95,3.05-7.84,5.38-1.89,2.33-2.83,5.13-2.83,8.4,0,2.52.57,4.75,1.7,6.7,1.13,1.95,2.74,3.68,4.82,5.19,2.08,1.51,4.75,2.83,8.03,3.97,3.27,1.13,6.99,2.14,11.14,3.02,6.92,1.39,13.16,3.24,18.7,5.57,5.54,2.33,10.26,5.1,14.16,8.31,3.9,3.21,6.86,6.86,8.88,10.95,2.01,4.09,3.02,8.66,3.02,13.69,0,8.69-2.05,16.15-6.14,22.38-4.09,6.23-9.85,11.02-17.28,14.35-7.43,3.33-16.12,5-26.06,5Z" fill="#fff"/><polygon points="766.11 120.13 766.11 142.42 678.86 142.42 678.86 10.23 765.35 10.23 765.35 32.5 703.02 32.5 703.02 63.85 755.72 63.85 755.72 85.77 703.02 85.77 703.02 120.13 766.11 120.13" fill="#fff"/><path d="M875.65,10.23h-23.04l-51.56,132.2h24.56l11.47-30.22h52.87l11.39,30.22h25.5l-51.18-132.2ZM845.18,90.86l8.74-23.04c.87-2.52,1.86-5.35,2.94-8.5,1.06-3.14,2.16-6.41,3.3-9.82,1.13-3.4,2.21-6.66,3.2-9.82.1-.27.17-.54.25-.81.98,3.27,2.11,6.79,3.33,10.55,1.27,3.84,2.43,7.39,3.51,10.66,1.06,3.27,1.9,5.66,2.54,7.17l8.9,23.61h-36.71Z" fill="#fff"/><path d="M1081.68,10.23v132.2h-22.47l-71.35-94.26c.29,3.38.57,6.43.81,9.17.44,4.98.78,9.27,1.03,12.85.25,3.59.48,6.58.67,8.96.19,2.4.32,4.57.38,6.52s.1,3.81.1,5.57v51.18h-24.37V10.23h22.1l71.54,96.39c-.11-1.05-.22-2.11-.33-3.19-.38-3.71-.73-7.58-1.05-11.61-.32-4.03-.57-8.25-.75-12.66-.19-4.39-.35-9.03-.48-13.88-.13-4.84-.19-9.96-.19-15.39V10.23h24.35Z" fill="#fff"/><path d="M1266.58,144.31c-9.57,0-18.32-1.64-26.25-4.91-7.93-3.27-14.8-7.96-20.59-14.07-5.79-6.11-10.29-13.34-13.5-21.72-3.21-8.37-4.82-17.53-4.82-27.48s1.7-18.44,5.1-26.63c3.4-8.18,8.12-15.36,14.16-21.53,6.04-6.17,13.09-10.95,21.15-14.35,8.06-3.4,16.81-5.1,26.25-5.1,6.42,0,12.65.94,18.7,2.83s11.58,4.5,16.62,7.84c5.03,3.34,9.25,7.21,12.65,11.62l-15.68,17.19c-3.28-3.4-6.64-6.26-10.1-8.59-3.46-2.33-7.05-4.09-10.77-5.29-3.72-1.2-7.52-1.79-11.43-1.79-5.79,0-11.24,1.07-16.34,3.21-5.1,2.14-9.51,5.16-13.22,9.06-3.72,3.9-6.64,8.53-8.78,13.88-2.14,5.35-3.21,11.3-3.21,17.85s1.04,12.72,3.12,18.13c2.08,5.42,5.04,10.07,8.88,13.98,3.84,3.9,8.43,6.89,13.79,8.97,5.35,2.08,11.24,3.12,17.66,3.12,4.15,0,8.18-.57,12.09-1.7,3.9-1.13,7.52-2.74,10.86-4.82,3.34-2.08,6.39-4.5,9.16-7.27l12.09,19.45c-3.02,3.4-7.05,6.49-12.09,9.25-5.04,2.77-10.67,4.94-16.9,6.52-6.23,1.57-12.44,2.36-18.6,2.36Z" fill="#fff"/><path d="M1415.58,144.31c-9.44,0-18.19-1.7-26.25-5.1-8.06-3.4-15.08-8.15-21.06-14.26-5.98-6.1-10.61-13.31-13.88-21.62-3.28-8.31-4.91-17.38-4.91-27.2s1.63-18.89,4.91-27.2c3.27-8.31,7.9-15.52,13.88-21.62,5.98-6.11,13-10.86,21.06-14.26,8.06-3.4,16.81-5.1,26.25-5.1s18.38,1.7,26.44,5.1c8.06,3.4,15.04,8.19,20.96,14.35,5.92,6.17,10.51,13.38,13.79,21.62,3.27,8.25,4.91,17.28,4.91,27.1s-1.64,18.7-4.91,27.01c-3.28,8.31-7.87,15.55-13.79,21.72-5.92,6.17-12.91,10.95-20.96,14.35-8.06,3.4-16.87,5.1-26.44,5.1ZM1415.58,120.89c6.04,0,11.55-1.1,16.53-3.3,4.97-2.2,9.28-5.35,12.94-9.44,3.65-4.09,6.52-8.84,8.59-14.26,2.08-5.41,3.12-11.33,3.12-17.75s-1.04-12.34-3.12-17.75c-2.08-5.41-4.94-10.17-8.59-14.26-3.65-4.09-7.96-7.24-12.94-9.44-4.98-2.2-10.48-3.3-16.53-3.3s-11.4,1.1-16.43,3.3c-5.04,2.2-9.38,5.32-13.03,9.35-3.65,4.03-6.49,8.75-8.5,14.16-2.01,5.42-3.02,11.4-3.02,17.94s1.01,12.37,3.02,17.85c2.01,5.48,4.85,10.23,8.5,14.26,3.65,4.03,7.99,7.15,13.03,9.35,5.03,2.2,10.51,3.3,16.43,3.3Z" fill="#fff"/><path d="M1527.2,142.42V10.22h24.55v109.54h61v22.66h-85.55Z" fill="#fff"/><polygon points="1747.02 120.13 1747.02 142.42 1659.77 142.42 1659.77 10.23 1746.26 10.23 1746.26 32.5 1683.94 32.5 1683.94 63.85 1736.63 63.85 1736.63 85.77 1683.94 85.77 1683.94 120.13 1747.02 120.13" fill="#fff"/><path d="M959.45,244.27c-2.14-5.36-5.08-10.01-8.82-13.9-3.73-3.9-8.08-6.95-13.03-9.14-4.95-2.17-10.28-3.27-15.99-3.27h-32.1v88.14h32.1c5.71,0,11.04-1.09,15.99-3.28,4.95-2.17,9.3-5.22,13.03-9.12,3.74-3.9,6.68-8.57,8.82-13.98,2.14-5.41,3.2-11.31,3.2-17.69s-1.06-12.38-3.2-17.75ZM953.22,277.2c-1.84,4.57-4.36,8.55-7.55,11.95-3.19,3.41-6.9,6.03-11.14,7.87-4.25,1.86-8.76,2.78-13.53,2.78h-25.18v-75.54h25.18c4.78,0,9.28.92,13.53,2.76,4.24,1.86,7.95,4.47,11.14,7.87,3.19,3.4,5.71,7.39,7.55,11.96,1.84,4.59,2.78,9.63,2.78,15.17s-.94,10.6-2.78,15.18Z" fill="#fff"/><polygon points="1001.43 224.26 1001.43 257.5 1039.21 257.5 1039.21 263.78 1001.43 263.78 1001.43 299.8 1045.89 299.8 1045.89 306.1 995.15 306.1 995.15 217.96 1046.38 217.96 1046.38 224.26 1001.43 224.26" fill="#fff"/><path d="M1105.69,307.35c-4.2,0-8.21-.63-12.02-1.89-3.82-1.26-7.35-3.13-10.58-5.6-3.23-2.48-6.06-5.52-8.5-9.13l4.53-4.66c3.69,5.37,7.81,9.21,12.34,11.52,4.53,2.31,9.36,3.46,14.48,3.46,4.45,0,8.43-.78,11.96-2.33,3.53-1.55,6.32-3.69,8.37-6.42,2.06-2.73,3.08-5.81,3.08-9.25,0-2.35-.4-4.36-1.2-6.04-.8-1.68-1.93-3.15-3.4-4.41-1.47-1.26-3.23-2.37-5.29-3.34-2.06-.97-4.36-1.85-6.92-2.64-2.56-.8-5.31-1.61-8.25-2.45-4.03-1.17-7.62-2.39-10.76-3.65-3.15-1.26-5.84-2.77-8.06-4.53-2.22-1.76-3.9-3.86-5.04-6.3-1.13-2.43-1.7-5.42-1.7-8.94s.69-6.59,2.08-9.44c1.39-2.85,3.34-5.33,5.86-7.43,2.52-2.1,5.43-3.71,8.75-4.85,3.31-1.13,6.9-1.7,10.76-1.7,4.53,0,8.5.65,11.9,1.95,3.4,1.3,6.4,3.13,9,5.48,2.6,2.35,4.95,5.12,7.05,8.31l-4.66,4.53c-1.85-2.85-3.9-5.33-6.17-7.43-2.27-2.1-4.81-3.71-7.62-4.85-2.81-1.13-5.98-1.7-9.51-1.7-4.03,0-7.62.73-10.76,2.2-3.15,1.47-5.65,3.5-7.49,6.11-1.85,2.6-2.77,5.58-2.77,8.94,0,2.35.44,4.41,1.32,6.17s2.27,3.3,4.16,4.6c1.89,1.3,4.28,2.48,7.18,3.52,2.9,1.05,6.36,2.08,10.39,3.08,4.11,1.01,7.85,2.18,11.21,3.53,3.36,1.34,6.28,2.94,8.75,4.78,2.47,1.85,4.36,4.07,5.67,6.67,1.3,2.6,1.95,5.75,1.95,9.44,0,4.7-1.3,8.92-3.9,12.65-2.6,3.74-6.17,6.67-10.7,8.81-4.53,2.14-9.69,3.21-15.49,3.21Z" fill="#fff"/><path d="M1163.6,306.09v-6.3h14.23v-75.54h-14.23v-6.3h34.75v6.3h-14.23v75.54h14.23v6.3h-34.75Z" fill="#fff"/><path d="M1308.77,271.71c0,5.12-.98,9.87-2.97,14.23-1.97,4.36-4.74,8.14-8.31,11.33-3.55,3.19-7.7,5.66-12.39,7.43-4.7,1.78-9.77,2.65-15.23,2.65-6.55,0-12.61-1.11-18.2-3.33-5.58-2.22-10.46-5.33-14.6-9.31-4.16-4-7.39-8.74-9.71-14.23-2.3-5.51-3.46-11.52-3.46-18.07s1.14-12.57,3.4-18.07c2.27-5.49,5.43-10.25,9.46-14.28s8.76-7.16,14.22-9.39c5.46-2.22,11.34-3.33,17.63-3.33,4.46,0,8.85.65,13.23,1.95,4.36,1.3,8.35,3.06,11.95,5.28,3.62,2.24,6.47,4.78,8.57,7.63l-4.28,4.39c-2.17-2.51-4.89-4.74-8.12-6.66-3.22-1.94-6.7-3.46-10.38-4.6-3.7-1.13-7.27-1.7-10.71-1.7-5.36,0-10.38.97-15.04,2.9-4.66,1.92-8.73,4.62-12.22,8.04-3.47,3.44-6.19,7.54-8.12,12.28-1.92,4.74-2.89,9.93-2.89,15.55s.98,10.79,2.95,15.49c1.98,4.7,4.76,8.79,8.38,12.28,3.6,3.47,7.81,6.17,12.6,8.06,4.78,1.89,9.98,2.82,15.61,2.82,4.7,0,9.01-.68,12.96-2.08,3.95-1.38,7.36-3.33,10.27-5.85,2.89-2.51,5.14-5.44,6.73-8.81,1.6-3.36,2.4-7.01,2.4-10.96v-2.76h-32.48v-6.3h38.4c.08.43.14,1.08.19,1.95.03.89.08,1.82.13,2.84.03,1,.06,1.89.06,2.63Z" fill="#fff"/><path d="M1410.87,217.96v88.14h-6.05l-59.58-78.11c.02.3.02.6.03.92.08,3.03.16,6.31.25,9.88.08,3.57.16,7.06.25,10.46.08,3.4.14,6.33.19,8.81.03,2.48.06,4.06.06,4.73v43.31h-6.3v-88.14h5.79l59.48,77.97c-.03-2.81-.08-6.16-.13-10.04-.03-3.98-.08-8.08-.11-12.28-.05-4.19-.1-8.09-.13-11.71-.05-3.6-.06-6.38-.06-8.3v-35.63h6.28Z" fill="#fff"/><rect x="716.51" y="259.89" width="115.37" height="5.25" fill="#fff"/><rect x="1468.51" y="259.89" width="115.37" height="5.25" fill="#fff"/></svg>